<svg width="250" height="157" xmlns="http://www.w3.org/2000/svg" xmlns:xlink="http://www.w3.org/1999/xlink"><defs><linearGradient x1="50%" y1="100%" x2="50%" y2="0%" id="a"><stop stop-color="#F5F7FA" stop-opacity="0" offset="0%"/><stop stop-color="#D9DEE4" offset="100%"/></linearGradient><linearGradient x1="50%" y1="50%" x2="50%" y2="0%" id="b"><stop stop-color="#F5F7FA" stop-opacity="0" offset="0%"/><stop stop-color="#D9DEE4" offset="100%"/></linearGradient><linearGradient x1="50%" y1="50%" x2="50%" y2="0%" id="c"><stop stop-color="#F5F7FA" stop-opacity="0" offset="0%"/><stop stop-color="#D9DEE4" offset="100%"/></linearGradient><linearGradient x1="70.998%" y1="56.749%" x2="0%" y2="56.749%" id="d"><stop stop-color="#D9DEE4" offset="0%"/><stop stop-color="#F5F7FA" offset="100%"/></linearGradient><linearGradient x1="70.998%" y1="56.749%" x2="0%" y2="56.749%" id="f"><stop stop-color="#D9DEE4" offset="0%"/><stop stop-color="#F5F7FA" offset="100%"/></linearGradient><linearGradient x1="17.482%" y1="0%" x2="48.511%" y2="50%" id="i"><stop stop-color="#BEBEBE" offset="0%"/><stop stop-color="#E3E3E3" offset="100%"/></linearGradient><linearGradient x1="50%" y1="100%" x2="50%" y2="0%" id="j"><stop stop-color="#BEBEBE" offset="0%"/><stop stop-color="#E3E3E3" offset="100%"/></linearGradient><linearGradient x1="50%" y1="100%" x2="50%" y2="0%" id="k"><stop stop-color="#D9DEE4" offset="0%"/><stop stop-color="#F5F7FA" stop-opacity="0" offset="100%"/></linearGradient><linearGradient x1="76.224%" y1="100%" x2="21.306%" y2="0%" id="l"><stop stop-color="#D9DEE4" offset="0%"/><stop stop-color="#F5F7FA" offset="100%"/></linearGradient><linearGradient x1="83.167%" y1="58.199%" x2="0%" y2="2.952%" id="o"><stop stop-color="#D9DEE4" offset="0%"/><stop stop-color="#F5F7FA" offset="100%"/></linearGradient><linearGradient x1="31.998%" y1="17.972%" x2="68.002%" y2="80.666%" id="p"><stop stop-color="#D9DEE4" offset="0%"/><stop stop-color="#F5F7FA" offset="100%"/></linearGradient><linearGradient x1="83.167%" y1="63.125%" x2="0%" y2="-25.319%" id="s"><stop stop-color="#D9DEE4" offset="0%"/><stop stop-color="#F5F7FA" offset="100%"/></linearGradient><linearGradient x1="71.618%" y1="89.631%" x2="26.489%" y2="7.951%" id="t"><stop stop-color="#ABB4BE" offset="0%"/><stop stop-color="#E4E8ED" offset="100%"/></linearGradient><linearGradient x1="64.315%" y1="89.631%" x2="45.594%" y2="8.902%" id="u"><stop stop-color="#ABB4BE" offset="0%"/><stop stop-color="#E4E8ED" offset="100%"/></linearGradient><linearGradient x1="76.224%" y1="100%" x2="21.306%" y2="0%" id="v"><stop stop-color="#D9DEE4" offset="0%"/><stop stop-color="#F5F7FA" offset="100%"/></linearGradient><linearGradient x1="83.167%" y1="58.199%" x2="0%" y2="2.952%" id="y"><stop stop-color="#D9DEE4" offset="0%"/><stop stop-color="#F5F7FA" offset="100%"/></linearGradient><linearGradient x1="31.998%" y1="17.972%" x2="68.002%" y2="80.666%" id="z"><stop stop-color="#D9DEE4" offset="0%"/><stop stop-color="#F5F7FA" offset="100%"/></linearGradient><linearGradient x1="83.167%" y1="63.125%" x2="0%" y2="-25.319%" id="C"><stop stop-color="#D9DEE4" offset="0%"/><stop stop-color="#F5F7FA" offset="100%"/></linearGradient><linearGradient x1="71.618%" y1="89.631%" x2="43.347%" y2="8.902%" id="D"><stop stop-color="#ABB4BE" offset="0%"/><stop stop-color="#E4E8ED" offset="100%"/></linearGradient><linearGradient x1="21.306%" y1="17.972%" x2="78.694%" y2="80.666%" id="E"><stop stop-color="#D9DEE4" offset="0%"/><stop stop-color="#F5F7FA" offset="100%"/></linearGradient><linearGradient x1="66.452%" y1="100%" x2="31.998%" y2="0%" id="H"><stop stop-color="#D9DEE4" offset="0%"/><stop stop-color="#F5F7FA" offset="100%"/></linearGradient><linearGradient x1="84.213%" y1="0%" x2=".061%" y2="100%" id="L"><stop stop-color="#CED3D9" offset="0%"/><stop stop-color="#F5F7FA" offset="100%"/></linearGradient><linearGradient x1="84.255%" y1="0%" x2="0%" y2="100%" id="M"><stop stop-color="#CED3D9" offset="0%"/><stop stop-color="#F5F7FA" offset="100%"/></linearGradient><linearGradient x1="50%" y1="50%" x2="-2.859%" y2="92.764%" id="N"><stop stop-color="#DADFE5" offset="0%"/><stop stop-color="#FFF" stop-opacity=".443" offset="100%"/></linearGradient><linearGradient x1="50%" y1="50%" x2="22.007%" y2="100%" id="O"><stop stop-color="#DADFE5" offset="0%"/><stop stop-color="#FFF" stop-opacity=".443" offset="100%"/></linearGradient><linearGradient x1="50%" y1="0%" x2="50%" y2="100%" id="P"><stop stop-color="#5186F0" offset="0%"/><stop stop-color="#515FF0" offset="100%"/></linearGradient><linearGradient x1="50%" y1="0%" x2="50%" y2="100%" id="Q"><stop stop-color="#5186F0" offset="0%"/><stop stop-color="#515FF0" offset="100%"/></linearGradient><filter x="-13.8%" y="-41.6%" width="127.5%" height="183.1%" filterUnits="objectBoundingBox" id="e"><feGaussianBlur stdDeviation=".655" in="SourceGraphic"/></filter><filter x="-13.8%" y="-41.6%" width="127.5%" height="183.1%" filterUnits="objectBoundingBox" id="g"><feGaussianBlur stdDeviation=".445" in="SourceGraphic"/></filter><filter x="-13.8%" y="-41.6%" width="127.5%" height="183.1%" filterUnits="objectBoundingBox" id="h"><feGaussianBlur stdDeviation=".445" in="SourceGraphic"/></filter><filter x="-70.9%" y="-122.1%" width="241.8%" height="414%" filterUnits="objectBoundingBox" id="m"><feOffset dy="6" in="SourceAlpha" result="shadowOffsetOuter1"/><feGaussianBlur stdDeviation="8" in="shadowOffsetOuter1" result="shadowBlurOuter1"/><feColorMatrix values="0 0 0 0 0 0 0 0 0 0 0 0 0 0 0 0 0 0 0.0587030157 0" in="shadowBlurOuter1"/></filter><filter x="-78.5%" y="-106.8%" width="257%" height="374.7%" filterUnits="objectBoundingBox" id="q"><feOffset dy="6" in="SourceAlpha" result="shadowOffsetOuter1"/><feGaussianBlur stdDeviation="8" in="shadowOffsetOuter1" result="shadowBlurOuter1"/><feColorMatrix values="0 0 0 0 0 0 0 0 0 0 0 0 0 0 0 0 0 0 0.0587030157 0" in="shadowBlurOuter1"/></filter><filter x="-236.3%" y="-407%" width="572.6%" height="1146.6%" filterUnits="objectBoundingBox" id="w"><feOffset dy="6" in="SourceAlpha" result="shadowOffsetOuter1"/><feGaussianBlur stdDeviation="8" in="shadowOffsetOuter1" result="shadowBlurOuter1"/><feColorMatrix values="0 0 0 0 0 0 0 0 0 0 0 0 0 0 0 0 0 0 0.0587030157 0" in="shadowBlurOuter1"/></filter><filter x="-261.6%" y="-356.1%" width="623.3%" height="1015.8%" filterUnits="objectBoundingBox" id="A"><feOffset dy="6" in="SourceAlpha" result="shadowOffsetOuter1"/><feGaussianBlur stdDeviation="8" in="shadowOffsetOuter1" result="shadowBlurOuter1"/><feColorMatrix values="0 0 0 0 0 0 0 0 0 0 0 0 0 0 0 0 0 0 0.0587030157 0" in="shadowBlurOuter1"/></filter><filter x="-236.3%" y="-407%" width="572.6%" height="1146.6%" filterUnits="objectBoundingBox" id="F"><feOffset dy="6" in="SourceAlpha" result="shadowOffsetOuter1"/><feGaussianBlur stdDeviation="8" in="shadowOffsetOuter1" result="shadowBlurOuter1"/><feColorMatrix values="0 0 0 0 0 0 0 0 0 0 0 0 0 0 0 0 0 0 0.0587030157 0" in="shadowBlurOuter1"/></filter><filter x="-261.6%" y="-356.1%" width="623.3%" height="1015.8%" filterUnits="objectBoundingBox" id="I"><feOffset dy="6" in="SourceAlpha" result="shadowOffsetOuter1"/><feGaussianBlur stdDeviation="8" in="shadowOffsetOuter1" result="shadowBlurOuter1"/><feColorMatrix values="0 0 0 0 0 0 0 0 0 0 0 0 0 0 0 0 0 0 0.0587030157 0" in="shadowBlurOuter1"/></filter><filter x="-8.5%" y="-150%" width="116.9%" height="400%" filterUnits="objectBoundingBox" id="K"><feGaussianBlur stdDeviation="2" in="SourceGraphic"/></filter><path id="n" d="M0 39.47l30.712 6.143L38.083 32.1 7.371 28.414z"/><path id="r" d="M38.083 32.1l8.6 13.513 25.8-7.372-8.6-12.284z"/><path id="x" d="M0 4.791l9.214 1.843 2.211-4.054-9.214-1.106z"/><path id="B" d="M11.425 2.58l2.58 4.054 7.74-2.212-2.58-3.685z"/><path id="G" d="M0 4.791l9.214 1.843 2.211-4.054-9.214-1.106z"/><path id="J" d="M11.425 2.58l2.58 4.054 7.74-2.212-2.58-3.685z"/></defs><g fill="none" fill-rule="evenodd"><path d="M249.96 156.005c-21.778-47.238-69.55-80.025-124.98-80.025-55.43 0-103.202 32.787-124.98 80.026" fill="url(#a)"/><path d="M59.905 20.305c4.076 0 7.72 1.848 10.132 4.748.53-.1 1.076-.152 1.635-.152 4.843 0 8.768 3.91 8.768 8.734 0 4.823-3.925 8.733-8.768 8.733a8.829 8.829 0 01-1.972-.222 13.139 13.139 0 01-9.795 4.359c-3.853 0-7.318-1.65-9.724-4.279a8.844 8.844 0 01-1.583.142c-4.842 0-8.768-3.91-8.768-8.733s3.926-8.734 8.768-8.734a8.9 8.9 0 011.229.086 13.148 13.148 0 0110.078-4.682z" fill="url(#b)"/><path d="M184.619 0c5.195 0 9.837 2.356 12.911 6.054a11.25 11.25 0 012.083-.193c6.17 0 11.172 4.985 11.172 11.135 0 6.15-5.002 11.135-11.172 11.135-.864 0-1.705-.098-2.513-.283a16.74 16.74 0 01-12.481 5.557 16.74 16.74 0 01-12.39-5.455 11.34 11.34 0 01-2.016.18c-6.17 0-11.173-4.985-11.173-11.134 0-6.15 5.002-11.135 11.173-11.135.531 0 1.054.037 1.566.108A16.744 16.744 0 01184.619 0z" fill="url(#c)"/><path fill="#C2C6CC" d="M67.995 105.455h2.62v-20.96h-2.62z"/><path d="M19.65 18.363c0 6.229-3.52 7.837-7.86 7.837-4.341 0-7.86-1.608-7.86-7.837C3.93 12.134 7.449 0 11.79 0c4.34 0 7.86 12.134 7.86 18.363" fill="url(#d)" transform="translate(57.515 71.395)"/><path fill="#C2C6CC" filter="url(#e)" d="M14.28 33.405L0 38.134l11.66-4.729z" transform="translate(57.515 71.395)"/><path fill="#C2C6CB" d="M46.302 120.1h1.781v-14.252h-1.781z"/><path d="M13.362 12.487c0 4.235-2.393 5.329-5.345 5.329s-5.345-1.094-5.345-5.33C2.672 8.252 5.065 0 8.017 0s5.345 8.251 5.345 12.487" fill="url(#f)" transform="translate(39.175 96.94)"/><path fill="#C2C6CB" filter="url(#g)" d="M9.71 22.715L0 25.931l7.928-3.216z" transform="translate(39.175 96.94)"/><path fill="#C2C6CB" d="M186.372 108.966h-1.782V94.713h1.782z"/><path d="M13.69 12.487c0 4.235-2.393 5.329-5.345 5.329S3 16.722 3 12.486C3 8.252 5.393 0 8.345 0s5.345 8.251 5.345 12.487" fill="url(#f)" transform="matrix(-1 0 0 1 193.93 82.5)"/><path fill="#C2C6CB" filter="url(#h)" d="M9.71 26.5L0 29.715 7.928 26.5z" transform="matrix(-1 0 0 1 193.93 82.5)"/><path fill="url(#i)" d="M33.17 23.5v38.084h30.712V25.957z" transform="translate(88.93 15.5)"/><path fill="url(#j)" d="M33.17 23.5l-25.8 4.914v34.398l25.798-1.228z" transform="translate(88.93 15.5)"/><path fill="url(#k)" d="M13.618 48.5L1 0h70L59.486 48.5z" transform="translate(88.93 15.5)"/><path fill="url(#l)" d="M7.371 62.812l30.712 6.142V32.1L7.37 28.414z" transform="translate(88.93 15.5)"/><g transform="translate(88.93 15.5)"><use fill="#000" filter="url(#m)" xlink:href="#n"/><use fill="url(#o)" xlink:href="#n"/></g><path fill="url(#p)" d="M38.083 32.1v36.855l25.8-7.372V25.957z" transform="translate(88.93 15.5)"/><g transform="translate(88.93 15.5)"><use fill="#000" filter="url(#q)" xlink:href="#r"/><use fill="url(#s)" xlink:href="#r"/></g><path fill="url(#t)" d="M9.95 0v11.425h9.215V.737z" transform="translate(87.43 69)"/><path fill="url(#u)" d="M9.95 0L2.212 1.474v10.32l7.74-.369z" transform="translate(87.43 69)"/><path fill="url(#v)" d="M2.211 11.793l9.214 1.843V2.58L2.21 1.474z" transform="translate(87.43 69)"/><g transform="translate(87.43 69)"><use fill="#000" filter="url(#w)" xlink:href="#x"/><use fill="url(#y)" xlink:href="#x"/></g><path fill="url(#z)" d="M11.425 2.58v11.056l7.74-2.211V.737z" transform="translate(87.43 69)"/><g transform="translate(87.43 69)"><use fill="#000" filter="url(#A)" xlink:href="#B"/><use fill="url(#C)" xlink:href="#B"/></g><path fill="url(#D)" d="M9.95 0v11.425h9.215V.737z" transform="matrix(-1 0 0 1 157.93 70)"/><path d="M147.98 70l7.74 1.474v10.32l-7.74-.369z"/><path fill="url(#E)" d="M2.211 11.793l9.214 1.843V2.58L2.21 1.474z" transform="matrix(-1 0 0 1 157.93 70)"/><g transform="matrix(-1 0 0 1 157.93 70)"><use fill="#000" filter="url(#F)" xlink:href="#G"/><use fill="url(#y)" xlink:href="#G"/></g><path fill="url(#H)" d="M11.425 2.58v11.056l7.74-2.211V.737z" transform="matrix(-1 0 0 1 157.93 70)"/><g transform="matrix(-1 0 0 1 157.93 70)"><use fill="#000" filter="url(#I)" xlink:href="#J"/><use fill="url(#C)" xlink:href="#J"/></g><ellipse fill="#B5BDC7" style="mix-blend-mode:multiply" opacity=".3" filter="url(#K)" cx="124.93" cy="92" rx="35.5" ry="2"/><path d="M135.434 25.601a.256.256 0 00-.218-.1.245.245 0 00-.201.124c-.734 1.286-1.685 1.729-2.523 2.12-.548.254-1.064.495-1.45.935-.432.487-.633 1.148-.633 2.075 0 .354.028.75.089 1.189-1.105.265-2.068.112-2.068.112v1.008a7.75 7.75 0 003.006-.605 5.388 5.388 0 001.37-.77c1.834-1.414 2.426-3.666 2.426-3.666 0 2.405-1.753 4.497-3.993 5.242.689.218 1.33.319 1.906.29.649-.032 1.225-.217 1.713-.552 1.035-.717 1.627-2.103 1.627-3.808.004-1.378-.39-2.724-1.051-3.594z" fill="url(#L)" transform="scale(-1 1) rotate(78 0 -134.042)"/><path d="M116.647 33.075a.191.191 0 00-.162-.075.182.182 0 00-.15.093c-.546.957-1.255 1.287-1.88 1.578-.407.189-.792.369-1.08.696-.32.363-.47.855-.47 1.545 0 .264.02.558.065.885-.822.198-1.54.084-1.54.084v.75a5.78 5.78 0 002.24-.45 4.014 4.014 0 001.02-.573c1.366-1.053 1.807-2.73 1.807-2.73 0 1.79-1.306 3.348-2.975 3.903.514.162.99.237 1.42.216a2.431 2.431 0 001.276-.411c.771-.534 1.212-1.566 1.212-2.835.003-1.026-.29-2.028-.783-2.676z" fill="url(#M)" transform="rotate(70 114.43 36)"/><path d="M138.43 24.205c2.145-.661 10.018-3.462 7.754-7.503-2.397-4.276-3.584-.75-3.29.884.988 5.51 8.995-4.635 9.815-6.586" stroke="url(#N)" stroke-width=".5" stroke-linecap="round" stroke-dasharray="3"/><path d="M108.934 31.311c-2.064-1.905-3.203-3.181-2.9-6.375.13-1.38 1.3-.393 1.474 0 3.077 6.99-4.58 1.519-6.078-3.936" stroke="url(#O)" stroke-width=".5" stroke-linecap="round" stroke-dasharray="3"/><path d="M163.254 39.385a1 1 0 00-1.25-.526l-.075.03-3.967 1.81a1 1 0 00.754 1.85l.076-.03 3.967-1.81a1 1 0 00.495-1.324zm-11.679-8.399a1 1 0 01.832 1.07l-.01.082-.721 4.3a1 1 0 01-1.983-.25l.01-.08.72-4.3a1 1 0 011.152-.822zm6.66 2.232a1 1 0 00-1.34.233l-.043.06-2.617 4.03a1 1 0 001.635 1.15l.043-.061 2.616-4.029a1 1 0 00-.294-1.383z" style="mix-blend-mode:multiply" fill="#EBEFFB" fill-rule="nonzero"/><path d="M6.352 6.1l2.445.49v2.56l-2.445-.487V6.1zm-3.15-.61l2.445.49v2.561l-2.445-.488V5.491zM0 4.814l2.445.49v2.56L0 7.375V4.813zm6.352-1.762l2.445.489V6.1l-2.445-.488V3.051zm-3.15-.611l2.444.49V5.49l-2.445-.489V2.44zM6.351 0l2.445.488v2.563l-2.445-.49V.002z" transform="translate(116.43 73.5)" fill="url(#P)"/><path d="M2.54 2.44l.979.196V3.66l-.978-.195V2.44zm-1.26-.244l.979.196v1.025L1.28 3.22V2.196zM0 1.926l.978.195v1.024L0 2.95V1.925zm2.54-.706l.979.196V2.44l-.978-.195V1.22zM1.28.976l.979.196v1.024l-.978-.195V.976zM2.54 0l.979.195V1.22l-.978-.195V0z" transform="translate(94.43 78)" fill="url(#Q)"/><path d="M2.54 2.44l.979.196V3.66l-.978-.195V2.44zm-1.26-.244l.979.196v1.025L1.28 3.22V2.196zM0 1.926l.978.195v1.024L0 2.95V1.925zm2.54-.706l.979.196V2.44l-.978-.195V1.22zM1.28.976l.979.196v1.024l-.978-.195V.976zM2.54 0l.979.195V1.22l-.978-.195V0z" transform="matrix(-1 0 0 1 150.43 79.5)" fill="url(#Q)"/></g></svg>